<svg version="1.1" id="Layer_1" xmlns="http://www.w3.org/2000/svg" xmlns:xlink="http://www.w3.org/1999/xlink" x="0px" y="0px"
	 width="100%" viewBox="0 0 500 500" enable-background="new 0 0 500 500" xml:space="preserve">
<path fill="#FFFFFE" opacity="1.000000" stroke="none" 
	d="
M278.000000,501.000000 
	C185.333359,501.000000 93.166710,501.000000 1.000049,501.000000 
	C1.000033,334.333405 1.000033,167.666794 1.000016,1.000139 
	C167.666565,1.000093 334.333130,1.000093 500.999756,1.000046 
	C500.999847,167.666519 500.999847,334.333038 500.999939,500.999786 
	C426.833344,501.000000 352.666656,501.000000 278.000000,501.000000 
M101.975708,468.977814 
	C101.975708,468.977814 101.915253,468.919312 101.702324,468.033539 
	C104.079285,449.253265 106.456253,430.472992 108.714981,412.626923 
	C113.054581,414.327423 116.513260,416.363922 120.208488,416.978760 
	C126.512695,418.027710 132.135132,415.231842 136.708145,411.250854 
	C155.196014,395.156250 164.106094,374.344543 164.757935,350.161957 
	C165.035400,339.867584 158.093582,332.622192 147.794037,332.157867 
	C140.844315,331.844574 133.799484,333.776978 126.787918,334.628387 
	C124.194061,334.943329 121.573669,335.039856 119.529976,335.193542 
	C116.137779,337.764099 112.945946,340.513245 109.440170,342.776031 
	C99.819992,348.985199 91.055779,356.034668 85.549820,366.340637 
	C81.965179,373.050232 80.441330,380.081940 83.818268,387.383179 
	C84.470207,388.792725 85.712311,389.929291 86.682175,391.191803 
	C87.161758,391.162384 87.641350,391.132965 88.120934,391.103546 
	C80.038193,364.993530 98.716698,355.206665 115.877228,342.881165 
	C115.877228,345.143524 115.984703,345.969635 115.861755,346.759857 
	C110.397896,381.879456 104.861198,416.987885 99.478035,452.119812 
	C98.447189,458.847382 97.756813,465.654846 97.456825,472.449646 
	C97.367447,474.474182 99.142166,476.581024 100.062798,478.650177 
	C101.428284,476.707672 103.138596,474.901611 103.987984,472.754883 
	C104.323532,471.906830 102.741982,470.300262 101.975708,468.977814 
M231.108078,311.661407 
	C232.778931,310.566711 234.452820,309.476624 236.120178,308.376648 
	C260.062317,292.581787 272.868622,271.546661 272.250122,241.652084 
	C271.601654,210.309158 269.493195,178.767426 274.701141,147.143860 
	C236.478836,151.621475 197.979141,149.951035 158.881851,148.659653 
	C159.560135,167.499680 160.241180,186.416397 160.918350,205.225723 
	C178.792587,200.120926 196.748337,202.879776 215.099808,202.036896 
	C215.099808,213.357529 214.592926,224.008316 215.216629,234.592484 
	C216.192276,251.149048 207.717361,261.497528 193.823502,267.896881 
	C178.324982,275.035309 161.753021,276.229645 144.954849,274.013702 
	C114.780937,270.033356 93.319214,253.892883 82.012054,225.870483 
	C69.577522,195.054153 71.330002,163.704819 84.361923,133.551254 
	C95.519699,107.734131 115.189194,90.242805 142.878418,83.367218 
	C168.952423,76.892731 194.714066,79.011574 219.783600,88.810326 
	C229.351379,92.550026 238.173462,97.435013 244.994003,105.358879 
	C246.324387,106.904442 247.606384,108.491669 249.699783,111.008316 
	C250.182007,107.179039 250.657379,104.619102 250.804535,102.040436 
	C251.837860,83.931450 252.883118,65.822014 253.658920,47.701347 
	C253.730972,46.018318 252.385757,43.353065 250.968307,42.678570 
	C242.286499,38.547318 233.671539,33.930061 224.520111,31.195593 
	C196.295715,22.762096 167.470337,22.389320 138.531036,26.924847 
	C96.574966,33.500431 63.219322,54.023903 38.987305,89.022392 
	C24.102520,110.520599 15.778645,134.437302 12.645710,160.355682 
	C8.962838,190.823639 11.013394,220.602768 23.690216,248.856659 
	C39.687756,284.511688 66.248299,309.104797 103.323410,321.944061 
	C122.578690,328.612244 142.497711,330.543579 162.803711,330.132141 
	C186.908295,329.643707 209.544479,324.129425 231.108078,311.661407 
M473.123047,301.593231 
	C473.123047,291.208038 473.123047,280.822845 473.123047,270.776428 
	C447.755280,270.776428 422.319824,270.776428 396.251465,270.776428 
	C396.251465,190.359756 396.251465,109.972260 396.251465,29.471127 
	C375.621277,29.471127 355.622437,29.471127 335.651398,29.471127 
	C335.651398,128.348145 335.651398,227.036972 335.651398,325.469543 
	C381.498688,325.469543 426.894165,325.469543 473.106964,325.469543 
	C473.106964,317.821930 473.106964,310.196259 473.123047,301.593231 
M327.218903,415.637512 
	C325.493988,417.704742 323.769043,419.771942 321.323212,422.703125 
	C321.023743,420.340332 320.686584,419.359833 320.816254,418.445587 
	C322.236755,408.430084 323.774933,398.431061 325.155243,388.410217 
	C325.360718,386.918427 324.916656,385.337219 324.773102,383.797363 
	C323.141449,384.194061 321.341827,384.280426 319.913910,385.053467 
	C317.124756,386.563354 314.543365,388.456970 310.848083,390.860168 
	C313.075012,384.272736 315.015747,379.194977 316.405182,373.970581 
	C316.767090,372.609833 315.829254,370.254791 314.696655,369.370544 
	C313.927032,368.769714 311.325439,369.453247 310.321045,370.393463 
	C305.120392,375.261780 301.731201,380.951080 303.330811,388.558136 
	C303.553589,389.617615 303.305756,391.322205 302.592133,391.945831 
	C296.997864,396.834412 291.236786,401.532104 285.364929,406.423828 
	C283.455353,399.586487 287.389679,392.513184 284.726227,386.031250 
	C284.193237,385.958130 283.660217,385.884979 283.127197,385.811859 
	C279.731354,391.501251 276.335480,397.190643 272.939636,402.880035 
	C271.164001,396.451874 272.850861,391.026642 275.617615,385.862030 
	C277.344452,382.638580 279.672455,380.620056 283.735535,382.185547 
	C284.485413,382.474487 285.636047,381.723328 286.601715,381.452240 
	C286.011444,380.549011 285.627350,379.226105 284.794373,378.816742 
	C281.560272,377.227509 277.964783,377.008545 275.713501,380.078430 
	C273.108948,383.630035 270.958160,387.626434 269.253906,391.699005 
	C266.906525,397.308533 261.013611,402.157562 255.215836,402.411560 
	C254.531677,399.183594 254.068222,395.887421 253.098007,392.747864 
	C252.221436,389.911255 250.149582,388.109009 246.969788,389.328644 
	C241.152969,391.559662 236.256149,400.838257 238.369614,406.754608 
	C239.304474,409.371582 242.014801,412.603821 244.415909,413.086670 
	C246.696259,413.545319 249.679443,410.873749 252.239548,409.382751 
	C253.158768,408.847351 253.582443,407.345795 254.511627,406.962555 
	C258.870392,405.164886 263.326416,403.603088 267.156708,402.177094 
	C268.261719,403.914795 269.511688,405.880463 270.761658,407.846100 
	C272.806519,406.392181 275.053284,405.146301 276.832764,403.418976 
	C278.275330,402.018707 279.156250,400.039795 280.830719,397.487762 
	C281.583374,405.687164 280.921082,411.736786 275.364227,417.554108 
	C264.694000,428.724609 256.874725,441.950226 252.763901,457.027771 
	C250.505432,465.311340 249.474228,473.773926 253.037796,481.990662 
	C255.727676,488.192871 261.761383,489.105713 266.079010,483.870483 
	C268.478302,480.961212 270.478149,477.566101 271.974365,474.095245 
	C278.771881,458.326691 281.462585,441.531006 282.769440,424.615540 
	C283.433746,416.017395 286.059174,409.412354 293.162720,404.459717 
	C297.111298,401.706696 300.647858,398.367035 304.423157,395.358337 
	C305.444611,394.544312 306.580170,393.640564 307.799652,393.349915 
	C312.117859,392.320679 316.495026,391.538940 320.775574,390.678345 
	C320.778473,390.660248 320.609772,391.606384 320.474823,392.557312 
	C319.309479,400.769592 317.797241,408.956970 317.194000,417.210632 
	C317.001068,419.850189 319.220551,422.666107 320.336304,425.401337 
	C322.906097,423.841125 326.221039,422.840393 327.896698,420.608795 
	C331.867615,415.320374 335.060638,409.447845 338.522583,403.884644 
	C347.909668,407.823029 347.406769,396.624969 353.082458,394.249298 
	C353.856842,396.564819 354.534973,399.100311 355.538635,401.499664 
	C358.733429,409.137451 364.302002,409.927979 369.509399,403.530762 
	C370.848907,401.885162 372.054230,400.130280 374.153290,397.306061 
	C373.446228,402.108215 372.879730,405.372925 372.496033,408.658997 
	C370.414124,426.488647 368.336426,444.319122 366.399963,462.164795 
	C366.238831,463.649658 367.061737,465.279449 367.652954,466.751251 
	C367.714935,466.905518 369.903320,466.683502 370.092041,466.221893 
	C370.731598,464.657593 371.122955,462.918091 371.212738,461.224548 
	C371.294403,459.684448 370.518951,458.075378 370.703003,456.567719 
	C373.421356,434.297913 376.274445,412.044525 378.987946,389.774109 
	C379.382416,386.536560 380.651489,384.758087 384.046204,384.266418 
	C387.115448,383.821930 390.098907,382.785248 393.120209,382.009674 
	C393.002930,381.218536 392.885620,380.427429 392.768341,379.636292 
	C388.876801,379.985199 384.985260,380.334076 380.227753,380.760590 
	C381.197845,377.972107 381.900024,375.837128 382.680328,373.731079 
	C385.966125,364.863007 389.505554,356.078888 392.441711,347.097107 
	C393.376953,344.236115 394.708923,339.871124 390.539856,338.561127 
	C389.355743,338.189087 385.603821,342.166077 384.926544,344.663147 
	C381.933350,355.698639 379.732941,366.946838 376.970551,378.049591 
	C376.559753,379.700806 374.916107,381.325714 373.423950,382.356354 
	C371.564026,383.641022 369.269470,384.296539 367.162598,385.223694 
	C369.259064,386.012115 371.355499,386.800568 373.972168,387.784637 
	C373.061798,389.789642 372.379028,392.453125 370.831055,394.443756 
	C368.206421,397.818909 365.035797,400.769470 362.094635,403.898468 
	C360.370087,400.099396 358.502167,396.356781 356.975372,392.479797 
	C356.075287,390.194183 355.715912,387.695648 355.113373,385.292847 
	C354.621246,385.257050 354.129120,385.221222 353.636993,385.185425 
	C350.079651,390.367798 346.522278,395.550201 342.964935,400.732574 
	C342.410736,400.464233 341.856537,400.195892 341.302338,399.927551 
	C342.993408,394.973511 344.293762,389.835388 346.510620,385.129028 
	C348.030731,381.901917 350.768829,379.268738 354.876709,382.619385 
	C355.443390,383.081604 356.648376,382.761261 357.649872,382.807465 
	C356.458374,377.185913 350.896179,375.196136 346.834045,379.194733 
	C343.969788,382.014130 341.992981,385.877563 340.117523,389.530334 
	C335.793854,397.951385 331.773315,406.528076 327.218903,415.637512 
M158.129639,424.643494 
	C158.067902,430.967438 155.091125,437.274139 157.974625,443.790955 
	C159.480637,442.283142 160.336594,440.649597 161.003845,438.942322 
	C164.085724,431.056396 166.988876,423.097321 170.246857,415.285736 
	C171.125732,413.178497 173.023926,411.496399 175.342911,408.452789 
	C176.345688,412.521759 176.855972,415.049103 177.595520,417.507477 
	C179.796936,424.825287 184.416733,425.961823 189.543365,420.326263 
	C192.192017,417.414734 194.458145,414.155212 196.922440,411.020660 
	C203.599167,418.995941 205.390671,419.002380 212.351227,411.295715 
	C212.781631,410.819153 213.276260,410.288483 213.850128,410.071381 
	C218.228485,408.415009 222.633987,406.830261 227.171783,405.171814 
	C225.989746,415.014984 224.648499,425.216553 223.567978,435.445679 
	C222.415024,446.360474 221.379349,457.292480 220.633102,468.240173 
	C220.520966,469.885162 222.265274,471.656647 223.150848,473.369629 
	C224.049011,471.735138 225.648315,470.133453 225.726624,468.460602 
	C226.110916,460.250458 225.391037,451.939270 226.344254,443.814301 
	C229.249252,419.052826 232.824829,394.370697 235.922775,369.630524 
	C236.389328,365.904633 237.960571,364.350952 241.482697,364.095551 
	C259.894745,362.760437 278.304077,361.386902 296.711731,359.992798 
	C297.743896,359.914642 298.753204,359.533966 299.773132,359.294067 
	C299.849762,358.745544 299.926392,358.197021 300.002991,357.648468 
	C298.013580,357.156921 295.994141,356.146637 294.039734,356.259796 
	C283.081970,356.894287 272.135345,357.743195 261.194092,358.631927 
	C253.494095,359.257385 245.808731,360.062866 237.532166,360.843079 
	C238.507996,354.586365 239.442123,349.037048 240.183960,343.462189 
	C240.329010,342.372131 239.728516,341.182922 239.471878,340.039429 
	C238.560699,340.927704 237.077423,341.683960 236.836670,342.726990 
	C235.754303,347.416046 234.579559,352.160736 234.302078,356.935547 
	C234.058853,361.120972 231.806030,361.716217 228.539368,361.994720 
	C220.252731,362.701294 211.966370,363.448334 203.708466,364.421661 
	C202.164444,364.603638 200.753342,365.913239 199.280899,366.702515 
	C200.794006,367.163727 202.346832,368.122498 203.813797,368.005402 
	C213.371124,367.242371 222.909805,366.245911 232.779633,365.294495 
	C231.437576,375.161652 230.313644,384.696991 228.787308,394.167480 
	C227.879776,399.798584 219.730423,405.886932 214.517273,405.493896 
	C213.699051,402.078766 213.192078,398.601715 211.994858,395.381195 
	C210.972305,392.630585 208.539276,390.658997 205.758698,393.025635 
	C202.663773,395.659760 199.916122,398.825256 197.518341,402.123688 
	C194.590988,406.150635 192.358536,410.679260 189.482910,414.748779 
	C187.959106,416.905243 185.709473,418.548798 182.982788,421.208984 
	C181.988800,418.053558 181.666779,416.089752 180.780548,414.426514 
	C179.240189,411.535675 177.351349,408.830536 175.608627,406.047516 
	C172.975876,408.068115 170.029907,409.798706 167.807266,412.199066 
	C165.957718,414.196503 164.957840,416.980713 163.581589,419.416443 
	C163.525513,413.983856 164.239441,408.896515 164.964890,403.810852 
	C166.911102,390.167023 168.741821,376.601013 174.766571,363.829132 
	C178.129028,356.701050 179.780518,348.717163 181.696533,340.993286 
	C182.118484,339.292358 180.395508,337.059326 179.660248,335.071320 
	C178.115082,336.350616 175.692963,337.345154 175.169830,338.956299 
	C172.205017,348.087250 168.920151,357.223450 167.192642,366.624023 
	C163.709305,385.579193 161.157181,404.705475 158.129639,424.643494 
M390.674591,483.856781 
	C392.800171,482.473053 395.837006,481.572083 396.875275,479.612305 
	C399.652588,474.369965 402.550507,468.860565 403.649017,463.121948 
	C406.892181,446.179626 409.402771,429.092163 411.939941,412.022827 
	C412.613220,407.493347 413.253052,403.334381 417.024109,400.105225 
	C423.337524,394.699097 429.454407,389.059235 435.533630,383.388641 
	C436.412354,382.569031 436.622437,381.032593 437.141876,379.827850 
	C435.854858,380.041901 434.308136,379.876465 433.331818,380.544556 
	C430.870392,382.228912 428.627106,384.244171 426.366943,386.207977 
	C422.335693,389.710693 418.356445,393.273315 413.522583,397.547211 
	C413.890717,391.310059 414.323090,386.344818 414.402344,381.373932 
	C414.430420,379.611145 413.598877,377.834656 413.159821,376.064453 
	C411.997986,377.277344 410.616913,378.347107 409.714630,379.729401 
	C406.801178,384.192780 404.063873,388.771149 401.258698,393.305206 
	C400.522552,393.075439 399.786407,392.845673 399.050262,392.615906 
	C399.050262,386.824463 399.050262,381.033051 399.050262,373.921509 
	C394.646973,379.424500 393.706116,389.535400 396.197266,393.656891 
	C398.463074,397.405548 401.626068,397.810394 404.761810,394.482330 
	C406.497742,392.639923 407.818268,390.406006 410.037476,387.377777 
	C409.940002,396.073761 410.482056,403.474274 404.543701,409.472137 
	C402.476440,411.560120 401.070038,414.342743 399.536865,416.912567 
	C389.739868,433.334076 383.045441,450.697632 384.047729,470.231293 
	C384.310638,475.355591 384.616425,480.690674 390.674591,483.856781 
z"/>
<path fill="#FFBD5A" opacity="1.000000" stroke="none" 
	d="
M230.798965,311.854858 
	C209.544479,324.129425 186.908295,329.643707 162.803711,330.132141 
	C142.497711,330.543579 122.578690,328.612244 103.323410,321.944061 
	C66.248299,309.104797 39.687756,284.511688 23.690216,248.856659 
	C11.013394,220.602768 8.962838,190.823639 12.645710,160.355682 
	C15.778645,134.437302 24.102520,110.520599 38.987305,89.022392 
	C63.219322,54.023903 96.574966,33.500431 138.531036,26.924847 
	C167.470337,22.389320 196.295715,22.762096 224.520111,31.195593 
	C233.671539,33.930061 242.286499,38.547318 250.968307,42.678570 
	C252.385757,43.353065 253.730972,46.018318 253.658920,47.701347 
	C252.883118,65.822014 251.837860,83.931450 250.804535,102.040436 
	C250.657379,104.619102 250.182007,107.179039 249.699783,111.008316 
	C247.606384,108.491669 246.324387,106.904442 244.994003,105.358879 
	C238.173462,97.435013 229.351379,92.550026 219.783600,88.810326 
	C194.714066,79.011574 168.952423,76.892731 142.878418,83.367218 
	C115.189194,90.242805 95.519699,107.734131 84.361923,133.551254 
	C71.330002,163.704819 69.577522,195.054153 82.012054,225.870483 
	C93.319214,253.892883 114.780937,270.033356 144.954849,274.013702 
	C161.753021,276.229645 178.324982,275.035309 193.823502,267.896881 
	C207.717361,261.497528 216.192276,251.149048 215.216629,234.592484 
	C214.592926,224.008316 215.099808,213.357529 215.099808,202.036896 
	C196.748337,202.879776 178.792587,200.120926 160.918350,205.225723 
	C160.241180,186.416397 159.560135,167.499680 158.881851,148.659653 
	C197.979141,149.951035 236.478836,151.621475 274.701141,147.143860 
	C269.493195,178.767426 271.601654,210.309158 272.250122,241.652084 
	C272.868622,271.546661 260.062317,292.581787 236.120178,308.376648 
	C234.452820,309.476624 232.778931,310.566711 230.798965,311.854858 
z"/>
<path fill="#FFBD5A" opacity="1.000000" stroke="none" 
	d="
M473.114990,302.081909 
	C473.106964,310.196259 473.106964,317.821930 473.106964,325.469543 
	C426.894165,325.469543 381.498688,325.469543 335.651398,325.469543 
	C335.651398,227.036972 335.651398,128.348145 335.651398,29.471127 
	C355.622437,29.471127 375.621277,29.471127 396.251465,29.471127 
	C396.251465,109.972260 396.251465,190.359756 396.251465,270.776428 
	C422.319824,270.776428 447.755280,270.776428 473.123047,270.776428 
	C473.123047,280.822845 473.123047,291.208038 473.114990,302.081909 
z"/>
<path fill="#FFC164" opacity="1.000000" stroke="none" 
	d="
M327.424316,415.339569 
	C331.773315,406.528076 335.793854,397.951385 340.117523,389.530334 
	C341.992981,385.877563 343.969788,382.014130 346.834045,379.194733 
	C350.896179,375.196136 356.458374,377.185913 357.649872,382.807465 
	C356.648376,382.761261 355.443390,383.081604 354.876709,382.619385 
	C350.768829,379.268738 348.030731,381.901917 346.510620,385.129028 
	C344.293762,389.835388 342.993408,394.973511 341.302338,399.927551 
	C341.856537,400.195892 342.410736,400.464233 342.964935,400.732574 
	C346.522278,395.550201 350.079651,390.367798 353.636993,385.185425 
	C354.129120,385.221222 354.621246,385.257050 355.113373,385.292847 
	C355.715912,387.695648 356.075287,390.194183 356.975372,392.479797 
	C358.502167,396.356781 360.370087,400.099396 362.094666,403.898499 
	C365.035797,400.769470 368.206421,397.818909 370.831055,394.443756 
	C372.379028,392.453125 373.061798,389.789642 373.972168,387.784637 
	C371.355499,386.800568 369.259064,386.012115 367.162598,385.223694 
	C369.269470,384.296539 371.564026,383.641022 373.423950,382.356354 
	C374.916107,381.325714 376.559753,379.700806 376.970551,378.049591 
	C379.732941,366.946838 381.933350,355.698639 384.926544,344.663147 
	C385.603821,342.166077 389.355743,338.189087 390.539856,338.561127 
	C394.708923,339.871124 393.376953,344.236115 392.441711,347.097107 
	C389.505554,356.078888 385.966125,364.863007 382.680328,373.731079 
	C381.900024,375.837128 381.197845,377.972107 380.227753,380.760590 
	C384.985260,380.334076 388.876801,379.985199 392.768341,379.636292 
	C392.885620,380.427429 393.002930,381.218536 393.120209,382.009674 
	C390.098907,382.785248 387.115448,383.821930 384.046204,384.266418 
	C380.651489,384.758087 379.382416,386.536560 378.987946,389.774109 
	C376.274445,412.044525 373.421356,434.297913 370.703003,456.567719 
	C370.518951,458.075378 371.294403,459.684448 371.212738,461.224548 
	C371.122955,462.918091 370.731598,464.657593 370.092041,466.221893 
	C369.903320,466.683502 367.714935,466.905518 367.652954,466.751251 
	C367.061737,465.279449 366.238831,463.649658 366.399963,462.164795 
	C368.336426,444.319122 370.414124,426.488647 372.496033,408.658997 
	C372.879730,405.372925 373.446228,402.108215 374.153290,397.306061 
	C372.054230,400.130280 370.848907,401.885162 369.509399,403.530762 
	C364.302002,409.927979 358.733429,409.137451 355.538635,401.499664 
	C354.534973,399.100311 353.856842,396.564819 353.082458,394.249298 
	C347.406769,396.624969 347.909668,407.823029 338.522583,403.884644 
	C335.060638,409.447845 331.867615,415.320374 327.896698,420.608795 
	C326.221039,422.840393 322.906097,423.841125 320.336273,425.401306 
	C319.220551,422.666107 317.001068,419.850189 317.194000,417.210632 
	C317.797241,408.956970 319.309479,400.769592 320.474823,392.557312 
	C320.609772,391.606384 320.778473,390.660248 320.775574,390.678345 
	C316.495026,391.538940 312.117859,392.320679 307.799652,393.349915 
	C306.580170,393.640564 305.444611,394.544312 304.423157,395.358337 
	C300.647858,398.367035 297.111298,401.706696 293.162720,404.459717 
	C286.059174,409.412354 283.433746,416.017395 282.769440,424.615540 
	C281.462585,441.531006 278.771881,458.326691 271.974365,474.095245 
	C270.478149,477.566101 268.478302,480.961212 266.079010,483.870483 
	C261.761383,489.105713 255.727676,488.192871 253.037796,481.990662 
	C249.474228,473.773926 250.505432,465.311340 252.763901,457.027771 
	C256.874725,441.950226 264.694000,428.724609 275.364227,417.554108 
	C280.921082,411.736786 281.583374,405.687164 280.830719,397.487762 
	C279.156250,400.039795 278.275330,402.018707 276.832764,403.418976 
	C275.053284,405.146301 272.806519,406.392181 270.761658,407.846100 
	C269.511688,405.880463 268.261719,403.914795 267.156708,402.177094 
	C263.326416,403.603088 258.870392,405.164886 254.511627,406.962555 
	C253.582443,407.345795 253.158768,408.847351 252.239548,409.382751 
	C249.679443,410.873749 246.696259,413.545319 244.415909,413.086670 
	C242.014801,412.603821 239.304474,409.371582 238.369614,406.754608 
	C236.256149,400.838257 241.152969,391.559662 246.969788,389.328644 
	C250.149582,388.109009 252.221436,389.911255 253.098007,392.747864 
	C254.068222,395.887421 254.531677,399.183594 255.219604,402.410706 
	C261.013611,402.157562 266.906525,397.308533 269.253906,391.699005 
	C270.958160,387.626434 273.108948,383.630035 275.713501,380.078430 
	C277.964783,377.008545 281.560272,377.227509 284.794373,378.816742 
	C285.627350,379.226105 286.011444,380.549011 286.601715,381.452240 
	C285.636047,381.723328 284.485413,382.474487 283.735535,382.185547 
	C279.672455,380.620056 277.344452,382.638580 275.617615,385.862030 
	C272.850861,391.026642 271.164001,396.451874 272.939636,402.880035 
	C276.335480,397.190643 279.731354,391.501251 283.127197,385.811859 
	C283.660217,385.884979 284.193237,385.958130 284.726227,386.031250 
	C287.389679,392.513184 283.455353,399.586487 285.364929,406.423828 
	C291.236786,401.532104 296.997864,396.834412 302.592133,391.945831 
	C303.305756,391.322205 303.553589,389.617615 303.330811,388.558136 
	C301.731201,380.951080 305.120392,375.261780 310.321045,370.393463 
	C311.325439,369.453247 313.927032,368.769714 314.696655,369.370544 
	C315.829254,370.254791 316.767090,372.609833 316.405182,373.970581 
	C315.015747,379.194977 313.075012,384.272736 310.848083,390.860168 
	C314.543365,388.456970 317.124756,386.563354 319.913910,385.053467 
	C321.341827,384.280426 323.141449,384.194061 324.773102,383.797363 
	C324.916656,385.337219 325.360718,386.918427 325.155243,388.410217 
	C323.774933,398.431061 322.236755,408.430084 320.816254,418.445587 
	C320.686584,419.359833 321.023743,420.340332 321.323212,422.703125 
	C323.769043,419.771942 325.493988,417.704742 327.424316,415.339569 
M278.320953,431.842743 
	C278.862396,427.482086 279.403839,423.121399 279.945282,418.760742 
	C267.234589,432.664001 256.610168,447.511353 254.935196,466.809570 
	C254.583389,470.863037 254.906509,475.172455 255.930023,479.100342 
	C257.360992,484.591858 260.391571,485.212219 263.790222,480.803070 
	C266.283417,477.568634 268.731262,473.866791 269.731781,469.994110 
	C272.916931,457.664978 275.415985,445.158630 278.320953,431.842743 
M244.531891,400.033020 
	C243.995697,399.592163 243.459518,399.151306 242.923340,398.710419 
	C242.695587,401.558502 242.174866,404.430054 242.400009,407.241852 
	C242.478149,408.217712 244.771576,410.005463 245.417160,409.758667 
	C247.257172,409.055237 248.769958,407.495911 250.123962,406.487488 
	C247.923843,404.036926 246.404495,402.344635 244.531891,400.033020 
M306.221832,384.432617 
	C306.481110,385.476715 306.740387,386.520813 306.999664,387.564911 
	C307.320251,387.597198 307.640839,387.629486 307.961395,387.661774 
	C309.677704,383.095886 311.394012,378.529968 313.110321,373.964050 
	C312.517883,373.711334 311.925446,373.458588 311.333038,373.205872 
	C309.677826,376.708588 308.022614,380.211334 306.221832,384.432617 
M388.441895,349.138367 
	C388.600983,348.031860 388.760071,346.925323 388.919159,345.818817 
	C388.553040,345.757111 388.186951,345.695404 387.820831,345.633698 
	C386.445282,350.433868 385.069733,355.234009 383.694183,360.034149 
	C384.132782,360.169525 384.571381,360.304901 385.009979,360.440277 
	C386.077423,356.918976 387.144836,353.397675 388.441895,349.138367 
z"/>
<path fill="#FFC164" opacity="1.000000" stroke="none" 
	d="
M158.175278,424.202332 
	C161.157181,404.705475 163.709305,385.579193 167.192642,366.624023 
	C168.920151,357.223450 172.205017,348.087250 175.169830,338.956299 
	C175.692963,337.345154 178.115082,336.350616 179.660248,335.071320 
	C180.395508,337.059326 182.118484,339.292358 181.696533,340.993286 
	C179.780518,348.717163 178.129028,356.701050 174.766571,363.829132 
	C168.741821,376.601013 166.911102,390.167023 164.964890,403.810852 
	C164.239441,408.896515 163.525513,413.983856 163.581589,419.416443 
	C164.957840,416.980713 165.957718,414.196503 167.807266,412.199066 
	C170.029907,409.798706 172.975876,408.068115 175.608627,406.047516 
	C177.351349,408.830536 179.240189,411.535675 180.780548,414.426514 
	C181.666779,416.089752 181.988800,418.053558 182.982788,421.208984 
	C185.709473,418.548798 187.959106,416.905243 189.482910,414.748779 
	C192.358536,410.679260 194.590988,406.150635 197.518341,402.123688 
	C199.916122,398.825256 202.663773,395.659760 205.758698,393.025635 
	C208.539276,390.658997 210.972305,392.630585 211.994858,395.381195 
	C213.192078,398.601715 213.699051,402.078766 214.517273,405.493896 
	C219.730423,405.886932 227.879776,399.798584 228.787308,394.167480 
	C230.313644,384.696991 231.437576,375.161652 232.779633,365.294495 
	C222.909805,366.245911 213.371124,367.242371 203.813797,368.005402 
	C202.346832,368.122498 200.794006,367.163727 199.280899,366.702515 
	C200.753342,365.913239 202.164444,364.603638 203.708466,364.421661 
	C211.966370,363.448334 220.252731,362.701294 228.539368,361.994720 
	C231.806030,361.716217 234.058853,361.120972 234.302078,356.935547 
	C234.579559,352.160736 235.754303,347.416046 236.836670,342.726990 
	C237.077423,341.683960 238.560699,340.927704 239.471878,340.039429 
	C239.728516,341.182922 240.329010,342.372131 240.183960,343.462189 
	C239.442123,349.037048 238.507996,354.586365 237.532166,360.843079 
	C245.808731,360.062866 253.494095,359.257385 261.194092,358.631927 
	C272.135345,357.743195 283.081970,356.894287 294.039734,356.259796 
	C295.994141,356.146637 298.013580,357.156921 300.002991,357.648468 
	C299.926392,358.197021 299.849762,358.745544 299.773132,359.294067 
	C298.753204,359.533966 297.743896,359.914642 296.711731,359.992798 
	C278.304077,361.386902 259.894745,362.760437 241.482697,364.095551 
	C237.960571,364.350952 236.389328,365.904633 235.922775,369.630524 
	C232.824829,394.370697 229.249252,419.052826 226.344254,443.814301 
	C225.391037,451.939270 226.110916,460.250458 225.726624,468.460602 
	C225.648315,470.133453 224.049011,471.735138 223.150848,473.369629 
	C222.265274,471.656647 220.520966,469.885162 220.633102,468.240173 
	C221.379349,457.292480 222.415024,446.360474 223.567978,435.445679 
	C224.648499,425.216553 225.989746,415.014984 227.171783,405.171814 
	C222.633987,406.830261 218.228485,408.415009 213.850128,410.071381 
	C213.276260,410.288483 212.781631,410.819153 212.351227,411.295715 
	C205.390671,419.002380 203.599167,418.995941 196.922440,411.020660 
	C194.458145,414.155212 192.192017,417.414734 189.543365,420.326263 
	C184.416733,425.961823 179.796936,424.825287 177.595520,417.507477 
	C176.855972,415.049103 176.345688,412.521759 175.342911,408.452789 
	C173.023926,411.496399 171.125732,413.178497 170.246857,415.285736 
	C166.988876,423.097321 164.085724,431.056396 161.003845,438.942322 
	C160.336594,440.649597 159.480637,442.283142 157.974625,443.790955 
	C155.091125,437.274139 158.067902,430.967438 158.175278,424.202332 
M176.335388,344.347870 
	C174.744980,349.256683 173.154587,354.165466 171.564194,359.074280 
	C172.146912,359.243835 172.729630,359.413391 173.312363,359.582947 
	C174.578003,354.416351 175.843643,349.249725 177.584305,343.755615 
	C177.584305,343.165100 177.584305,342.574615 177.584305,341.984100 
	C177.436661,341.988739 177.289017,341.993347 177.141373,341.997986 
	C177.064011,342.637299 176.986664,343.276642 176.335388,344.347870 
M201.882690,402.222168 
	C201.908112,405.221893 201.689667,408.257965 202.127335,411.196289 
	C202.239288,411.947815 204.540176,413.008667 205.629852,412.808502 
	C206.827087,412.588593 208.167114,411.246338 208.696686,410.059265 
	C208.979523,409.425262 207.808319,407.987488 207.076904,407.088531 
	C205.557693,405.221313 203.894180,403.471436 201.882690,402.222168 
M207.188324,402.270599 
	C207.883698,402.829620 208.579071,403.388611 209.274445,403.947601 
	C209.626602,403.785492 209.978775,403.623383 210.330933,403.461243 
	C209.757919,400.995697 209.184891,398.530151 208.611877,396.064575 
	C207.908875,396.173065 207.205872,396.281555 206.502884,396.390045 
	C206.617081,398.122131 206.731262,399.854187 207.188324,402.270599 
z"/>
<path fill="#FFC265" opacity="1.000000" stroke="none" 
	d="
M102.033340,469.039062 
	C102.741982,470.300262 104.323532,471.906830 103.987984,472.754883 
	C103.138596,474.901611 101.428284,476.707672 100.062790,478.650177 
	C99.142166,476.581024 97.367447,474.474182 97.456825,472.449646 
	C97.756813,465.654846 98.447189,458.847382 99.478035,452.119812 
	C104.861198,416.987885 110.397896,381.879456 115.861755,346.759857 
	C115.984703,345.969635 115.877228,345.143524 115.877228,342.881165 
	C98.716698,355.206665 80.038193,364.993530 88.120934,391.103546 
	C87.641350,391.132965 87.161758,391.162384 86.682175,391.191803 
	C85.712311,389.929291 84.470207,388.792725 83.818268,387.383179 
	C80.441330,380.081940 81.965179,373.050232 85.549820,366.340637 
	C91.055779,356.034668 99.819992,348.985199 109.440170,342.776031 
	C112.945946,340.513245 116.137779,337.764099 119.529976,335.193542 
	C121.573669,335.039856 124.194061,334.943329 126.787918,334.628387 
	C133.799484,333.776978 140.844315,331.844574 147.794037,332.157867 
	C158.093582,332.622192 165.035400,339.867584 164.757935,350.161957 
	C164.106094,374.344543 155.196014,395.156250 136.708145,411.250854 
	C132.135132,415.231842 126.512695,418.027710 120.208488,416.978760 
	C116.513260,416.363922 113.054581,414.327423 108.714981,412.626923 
	C106.456253,430.472992 104.079285,449.253265 101.632805,468.509766 
	C101.532669,469.122040 101.502060,469.258087 101.471443,469.394165 
	C101.658737,469.275787 101.846039,469.157410 102.033340,469.039062 
M128.977997,411.740540 
	C134.178375,407.186279 140.337753,403.350067 144.390930,397.936829 
	C154.631104,384.260529 160.932480,368.764008 161.066528,351.356598 
	C161.135986,342.337585 156.493515,337.224823 147.581253,335.724579 
	C138.514862,334.198395 130.159302,336.981720 122.043968,340.504944 
	C120.962440,340.974518 120.213188,343.053986 119.976799,344.497131 
	C117.080338,362.179626 114.425270,379.902283 111.432053,397.567871 
	C110.547859,402.786255 110.425232,407.567596 114.695023,411.306335 
	C118.937721,415.021393 123.627777,413.884583 128.977997,411.740540 
z"/>
<path fill="#FFC266" opacity="1.000000" stroke="none" 
	d="
M390.312866,483.777039 
	C384.616425,480.690674 384.310638,475.355591 384.047729,470.231293 
	C383.045441,450.697632 389.739868,433.334076 399.536865,416.912567 
	C401.070038,414.342743 402.476440,411.560120 404.543701,409.472137 
	C410.482056,403.474274 409.940002,396.073761 410.037476,387.377777 
	C407.818268,390.406006 406.497742,392.639923 404.761810,394.482330 
	C401.626068,397.810394 398.463074,397.405548 396.197266,393.656891 
	C393.706116,389.535400 394.646973,379.424500 399.050262,373.921509 
	C399.050262,381.033051 399.050262,386.824463 399.050262,392.615906 
	C399.786407,392.845673 400.522552,393.075439 401.258698,393.305206 
	C404.063873,388.771149 406.801178,384.192780 409.714630,379.729401 
	C410.616913,378.347107 411.997986,377.277344 413.159790,376.064453 
	C413.598877,377.834656 414.430420,379.611145 414.402344,381.373932 
	C414.323090,386.344818 413.890717,391.310059 413.522583,397.547211 
	C418.356445,393.273315 422.335693,389.710693 426.366943,386.207977 
	C428.627106,384.244171 430.870392,382.228912 433.331818,380.544556 
	C434.308136,379.876465 435.854858,380.041901 437.141907,379.827850 
	C436.622437,381.032593 436.412354,382.569031 435.533630,383.388641 
	C429.454407,389.059235 423.337524,394.699097 417.024109,400.105225 
	C413.253052,403.334381 412.613220,407.493347 411.939941,412.022827 
	C409.402771,429.092163 406.892181,446.179626 403.649017,463.121948 
	C402.550507,468.860565 399.652588,474.369965 396.875275,479.612305 
	C395.837006,481.572083 392.800171,482.473053 390.312866,483.777039 
M389.700165,449.327576 
	C387.722473,459.657623 385.816528,469.983856 391.554291,480.104462 
	C404.459564,459.318481 405.095276,435.748993 407.668182,412.588684 
	C399.220825,423.436707 393.095428,435.268036 389.700165,449.327576 
z"/>
<path fill="#FFFEFB" opacity="1.000000" stroke="none" 
	d="
M278.250549,432.281738 
	C275.415985,445.158630 272.916931,457.664978 269.731781,469.994110 
	C268.731262,473.866791 266.283417,477.568634 263.790222,480.803070 
	C260.391571,485.212219 257.360992,484.591858 255.930023,479.100342 
	C254.906509,475.172455 254.583389,470.863037 254.935196,466.809570 
	C256.610168,447.511353 267.234589,432.664001 279.945282,418.760742 
	C279.403839,423.121399 278.862396,427.482086 278.250549,432.281738 
z"/>
<path fill="#FFFBF6" opacity="1.000000" stroke="none" 
	d="
M244.708527,400.342712 
	C246.404495,402.344635 247.923843,404.036926 250.123962,406.487488 
	C248.769958,407.495911 247.257172,409.055237 245.417160,409.758667 
	C244.771576,410.005463 242.478149,408.217712 242.400009,407.241852 
	C242.174866,404.430054 242.695587,401.558502 242.923340,398.710419 
	C243.459518,399.151306 243.995697,399.592163 244.708527,400.342712 
z"/>
<path fill="#FFF6E7" opacity="1.000000" stroke="none" 
	d="
M306.294617,384.073334 
	C308.022614,380.211334 309.677826,376.708588 311.333038,373.205872 
	C311.925446,373.458588 312.517883,373.711334 313.110321,373.964050 
	C311.394012,378.529968 309.677704,383.095886 307.961395,387.661774 
	C307.640839,387.629486 307.320251,387.597198 306.999664,387.564911 
	C306.740387,386.520813 306.481110,385.476715 306.294617,384.073334 
z"/>
<path fill="#FFEDD3" opacity="1.000000" stroke="none" 
	d="
M388.327087,349.507385 
	C387.144836,353.397675 386.077423,356.918976 385.009979,360.440277 
	C384.571381,360.304901 384.132782,360.169525 383.694183,360.034149 
	C385.069733,355.234009 386.445282,350.433868 387.820831,345.633698 
	C388.186951,345.695404 388.553040,345.757111 388.919159,345.818817 
	C388.760071,346.925323 388.600983,348.031860 388.327087,349.507385 
z"/>
<path fill="#FFFDF9" opacity="1.000000" stroke="none" 
	d="
M202.086334,401.947754 
	C203.894180,403.471436 205.557693,405.221313 207.076904,407.088531 
	C207.808319,407.987488 208.979523,409.425262 208.696686,410.059265 
	C208.167114,411.246338 206.827087,412.588593 205.629852,412.808502 
	C204.540176,413.008667 202.239288,411.947815 202.127335,411.196289 
	C201.689667,408.257965 201.908112,405.221893 202.086334,401.947754 
z"/>
<path fill="#FFEED4" opacity="1.000000" stroke="none" 
	d="
M177.109283,344.083130 
	C175.843643,349.249725 174.578003,354.416351 173.312363,359.582947 
	C172.729630,359.413391 172.146912,359.243835 171.564194,359.074280 
	C173.154587,354.165466 174.744980,349.256683 176.671326,344.174927 
	C177.007248,344.002014 177.109299,344.083130 177.109283,344.083130 
z"/>
<path fill="#FFF5E6" opacity="1.000000" stroke="none" 
	d="
M207.016891,401.928406 
	C206.731262,399.854187 206.617081,398.122131 206.502884,396.390045 
	C207.205872,396.281555 207.908875,396.173065 208.611877,396.064575 
	C209.184891,398.530151 209.757919,400.995697 210.330933,403.461243 
	C209.978775,403.623383 209.626602,403.785492 209.274445,403.947601 
	C208.579071,403.388611 207.883698,402.829620 207.016891,401.928406 
z"/>
<path fill="#FFEED4" opacity="1.000000" stroke="none" 
	d="
M176.958282,343.958984 
	C176.986664,343.276642 177.064011,342.637299 177.141373,341.997986 
	C177.289017,341.993347 177.436661,341.988739 177.584305,341.984100 
	C177.584305,342.574615 177.584305,343.165100 177.346802,343.919373 
	C177.109299,344.083130 177.007248,344.002014 176.958282,343.958984 
z"/>
<path fill="#FFFEFE" opacity="1.000000" stroke="none" 
	d="
M128.622986,411.888672 
	C123.627777,413.884583 118.937721,415.021393 114.695023,411.306335 
	C110.425232,407.567596 110.547859,402.786255 111.432053,397.567871 
	C114.425270,379.902283 117.080338,362.179626 119.976799,344.497131 
	C120.213188,343.053986 120.962440,340.974518 122.043968,340.504944 
	C130.159302,336.981720 138.514862,334.198395 147.581253,335.724579 
	C156.493515,337.224823 161.135986,342.337585 161.066528,351.356598 
	C160.932480,368.764008 154.631104,384.260529 144.390930,397.936829 
	C140.337753,403.350067 134.178375,407.186279 128.622986,411.888672 
z"/>
<path fill="#FFFFFE" opacity="1.000000" stroke="none" 
	d="
M102.004524,469.008423 
	C101.846039,469.157410 101.658737,469.275787 101.471443,469.394165 
	C101.502060,469.258087 101.532669,469.122040 101.739273,468.952637 
	C101.915253,468.919312 101.975708,468.977814 102.004524,469.008423 
z"/>
<path fill="#FFFEFB" opacity="1.000000" stroke="none" 
	d="
M389.798248,448.921661 
	C393.095428,435.268036 399.220825,423.436707 407.668182,412.588684 
	C405.095276,435.748993 404.459564,459.318481 391.554291,480.104462 
	C385.816528,469.983856 387.722473,459.657623 389.798248,448.921661 
z"/>
</svg>