<svg version="1.1" id="Layer_1" xmlns="http://www.w3.org/2000/svg" xmlns:xlink="http://www.w3.org/1999/xlink" x="0px" y="0px"
	 width="100%" viewBox="0 0 500 500" enable-background="new 0 0 500 500" xml:space="preserve">
<path fill="#FFFFFF" opacity="1.000000" stroke="none" 
	d="
M234.000000,501.000000 
	C156.000015,501.000000 78.500038,501.000000 1.000041,501.000000 
	C1.000028,334.333405 1.000028,167.666779 1.000014,1.000131 
	C167.666565,1.000087 334.333130,1.000087 500.999756,1.000044 
	C500.999847,167.666519 500.999847,334.333038 500.999939,500.999786 
	C412.166656,501.000000 323.333344,501.000000 234.000000,501.000000 
M168.536926,228.270615 
	C171.863022,213.057663 179.677856,200.725723 194.329788,194.871506 
	C216.289932,186.097290 237.091202,188.965927 255.929581,205.021866 
	C256.333832,196.565720 256.673035,188.617203 257.104065,180.673676 
	C257.620087,171.164429 257.654877,171.164352 248.635956,167.515244 
	C248.020309,167.266159 247.382858,167.069382 246.751099,166.861801 
	C225.607681,159.914810 204.468903,160.275131 183.576096,167.611176 
	C172.421646,171.527786 162.914749,178.222351 154.999878,187.137299 
	C138.303177,205.943665 133.213715,228.336639 135.300507,252.628662 
	C136.982742,272.211487 145.436539,288.620331 160.782944,301.249817 
	C172.105087,310.567535 185.306732,315.139282 199.690109,316.474457 
	C217.752853,318.151245 234.885544,315.411102 250.147324,304.809235 
	C258.974030,298.677551 266.163727,290.911377 266.583923,279.823059 
	C267.280762,261.433929 266.773529,242.999146 266.773529,225.007202 
	C248.471634,225.007202 229.290131,225.007202 210.538986,225.007202 
	C210.538986,235.023758 210.538986,244.226135 210.538986,252.736237 
	C220.040237,252.736237 228.887939,252.736237 238.039856,252.736237 
	C238.039856,258.454834 237.971985,264.108185 238.058609,269.759186 
	C238.148605,275.630585 235.803406,280.688232 230.721741,283.003906 
	C224.968445,285.625580 218.608810,287.420624 212.334351,288.296539 
	C196.007309,290.575714 180.908691,282.703400 172.968994,268.404968 
	C166.061127,255.964676 165.908661,242.657700 168.536926,228.270615 
M353.481415,287.033661 
	C345.719116,287.033661 337.956818,287.033661 329.812836,287.033661 
	C329.812836,284.329681 329.812836,282.357391 329.812836,280.385132 
	C329.812866,243.917557 329.813080,207.449997 329.812042,170.982422 
	C329.812012,169.650375 330.165527,168.164200 329.687744,167.030838 
	C329.234894,165.956726 327.919861,164.519211 326.958099,164.499390 
	C317.728424,164.309128 308.493195,164.385529 299.317749,164.385529 
	C299.317749,214.848541 299.317749,264.680908 299.317749,314.408142 
	C322.339050,314.408142 344.915253,314.408142 368.213440,314.408142 
	C368.213440,305.152466 368.213440,295.952728 368.213440,287.031342 
	C363.712616,287.031342 359.092072,287.031342 353.481415,287.033661 
z"/>
<path fill="#FFBE5A" opacity="1.000000" stroke="none" 
	d="
M168.407593,228.674988 
	C165.908661,242.657700 166.061127,255.964676 172.968994,268.404968 
	C180.908691,282.703400 196.007309,290.575714 212.334351,288.296539 
	C218.608810,287.420624 224.968445,285.625580 230.721741,283.003906 
	C235.803406,280.688232 238.148605,275.630585 238.058609,269.759186 
	C237.971985,264.108185 238.039856,258.454834 238.039856,252.736237 
	C228.887939,252.736237 220.040237,252.736237 210.538986,252.736237 
	C210.538986,244.226135 210.538986,235.023758 210.538986,225.007202 
	C229.290131,225.007202 248.471634,225.007202 266.773529,225.007202 
	C266.773529,242.999146 267.280762,261.433929 266.583923,279.823059 
	C266.163727,290.911377 258.974030,298.677551 250.147324,304.809235 
	C234.885544,315.411102 217.752853,318.151245 199.690109,316.474457 
	C185.306732,315.139282 172.105087,310.567535 160.782944,301.249817 
	C145.436539,288.620331 136.982742,272.211487 135.300507,252.628662 
	C133.213715,228.336639 138.303177,205.943665 154.999878,187.137299 
	C162.914749,178.222351 172.421646,171.527786 183.576096,167.611176 
	C204.468903,160.275131 225.607681,159.914810 246.751099,166.861801 
	C247.382858,167.069382 248.020309,167.266159 248.635956,167.515244 
	C257.654877,171.164352 257.620087,171.164429 257.104065,180.673676 
	C256.673035,188.617203 256.333832,196.565720 255.929581,205.021866 
	C237.091202,188.965927 216.289932,186.097290 194.329788,194.871506 
	C179.677856,200.725723 171.863022,213.057663 168.407593,228.674988 
z"/>
<path fill="#FFBE5B" opacity="1.000000" stroke="none" 
	d="
M353.976471,287.032501 
	C359.092072,287.031342 363.712616,287.031342 368.213440,287.031342 
	C368.213440,295.952728 368.213440,305.152466 368.213440,314.408142 
	C344.915253,314.408142 322.339050,314.408142 299.317749,314.408142 
	C299.317749,264.680908 299.317749,214.848541 299.317749,164.385529 
	C308.493195,164.385529 317.728424,164.309128 326.958099,164.499390 
	C327.919861,164.519211 329.234894,165.956726 329.687744,167.030838 
	C330.165527,168.164200 329.812012,169.650375 329.812042,170.982422 
	C329.813080,207.449997 329.812866,243.917557 329.812836,280.385132 
	C329.812836,282.357391 329.812836,284.329681 329.812836,287.033661 
	C337.956818,287.033661 345.719116,287.033661 353.976471,287.032501 
z"/>
</svg>